<svg width="25" height="14" viewBox="0 0 25 14" fill="none" xmlns="http://www.w3.org/2000/svg">
<path d="M10.3426 4.09C9.99464 3.358 9.49064 2.794 8.83064 2.398C8.17064 1.99 7.40264 1.786 6.52664 1.786C5.65064 1.786 4.85864 1.99 4.15064 2.398C3.45464 2.794 2.90264 3.37 2.49464 4.126C2.09864 4.87 1.90064 5.734 1.90064 6.718C1.90064 7.702 2.09864 8.566 2.49464 9.31C2.90264 10.054 3.45464 10.63 4.15064 11.038C4.85864 11.434 5.65064 11.632 6.52664 11.632C7.75064 11.632 8.75864 11.266 9.55064 10.534C10.3426 9.802 10.8046 8.812 10.9366 7.564H5.93264V6.232H12.6826V7.492C12.5866 8.524 12.2626 9.472 11.7106 10.336C11.1586 11.188 10.4326 11.866 9.53264 12.37C8.63264 12.862 7.63064 13.108 6.52664 13.108C5.36264 13.108 4.30064 12.838 3.34064 12.298C2.38064 11.746 1.61864 10.984 1.05464 10.012C0.502637 9.04 0.226637 7.942 0.226637 6.718C0.226637 5.494 0.502637 4.396 1.05464 3.424C1.61864 2.44 2.38064 1.678 3.34064 1.138C4.30064 0.585999 5.36264 0.309999 6.52664 0.309999C7.85864 0.309999 9.03464 0.639999 10.0546 1.3C11.0866 1.96 11.8366 2.89 12.3046 4.09H10.3426ZM24.2084 7.114H20.3744V11.002H18.8444V7.114H15.0284V5.728H18.8444V1.822H20.3744V5.728H24.2084V7.114Z" fill="white"/>
</svg>
